<svg width="287" height="41" viewBox="0 0 287 41" fill="none" xmlns="http://www.w3.org/2000/svg">
<path d="M29.484 18.58L18.06 40H16.464L0.252 1.444H9.996L18.312 23.872L29.316 1.444H29.652L40.74 23.704L49.056 1.444H58.632L42.504 40H40.908L29.484 18.58ZM75.1341 40.84C71.1581 40.84 67.6301 39.944 64.5501 38.152C61.4701 36.36 59.0901 33.924 57.4101 30.844C55.7301 27.764 54.8901 24.348 54.8901 20.596C54.8901 16.9 55.7021 13.512 57.3261 10.432C59.0061 7.352 61.3861 4.916 64.4661 3.124C67.5461 1.332 71.1021 0.435999 75.1341 0.435999C79.1661 0.435999 82.6941 1.332 85.7181 3.124C88.7981 4.916 91.1501 7.352 92.7741 10.432C94.4541 13.512 95.2941 16.9 95.2941 20.596C95.2941 24.348 94.4541 27.764 92.7741 30.844C91.0941 33.924 88.7141 36.36 85.6341 38.152C82.6101 39.944 79.1101 40.84 75.1341 40.84ZM75.3861 33.448C78.6341 33.448 81.1821 32.244 83.0301 29.836C84.9341 27.428 85.8861 24.404 85.8861 20.764C85.8861 17.124 84.8781 14.072 82.8621 11.608C80.8461 9.088 78.1861 7.828 74.8821 7.828C71.6901 7.828 69.1141 9.06 67.1541 11.524C65.2501 13.988 64.2981 17.068 64.2981 20.764C64.2981 24.348 65.3341 27.372 67.4061 29.836C69.4781 32.244 72.1381 33.448 75.3861 33.448ZM116.238 40.84C112.262 40.84 108.734 39.944 105.654 38.152C102.574 36.36 100.194 33.924 98.5143 30.844C96.8343 27.764 95.9943 24.348 95.9943 20.596C95.9943 16.9 96.8063 13.512 98.4303 10.432C100.11 7.352 102.49 4.916 105.57 3.124C108.65 1.332 112.206 0.435999 116.238 0.435999C120.27 0.435999 123.798 1.332 126.822 3.124C129.902 4.916 132.254 7.352 133.878 10.432C135.558 13.512 136.398 16.9 136.398 20.596C136.398 24.348 135.558 27.764 133.878 30.844C132.198 33.924 129.818 36.36 126.738 38.152C123.714 39.944 120.214 40.84 116.238 40.84ZM116.49 33.448C119.738 33.448 122.286 32.244 124.134 29.836C126.038 27.428 126.99 24.404 126.99 20.764C126.99 17.124 125.982 14.072 123.966 11.608C121.95 9.088 119.29 7.828 115.986 7.828C112.794 7.828 110.218 9.06 108.258 11.524C106.354 13.988 105.402 17.068 105.402 20.764C105.402 24.348 106.438 27.372 108.51 29.836C110.582 32.244 113.242 33.448 116.49 33.448ZM152.638 40.84C149.95 40.84 147.15 40.504 144.238 39.832C141.382 39.104 139.338 38.264 138.106 37.312L141.13 30.172C144.49 32.524 148.326 33.7 152.638 33.7C156.95 33.7 159.106 32.44 159.106 29.92C159.106 28.8 158.658 27.932 157.762 27.316C156.866 26.7 155.27 25.972 152.974 25.132L149.782 23.956C146.422 22.612 143.762 21.016 141.802 19.168C139.842 17.264 138.862 14.772 138.862 11.692C138.862 8.164 140.234 5.42 142.978 3.46C145.778 1.444 149.502 0.435999 154.15 0.435999C156.446 0.435999 158.686 0.687999 160.87 1.192C163.11 1.696 164.818 2.34 165.994 3.124L162.718 10.348C161.99 9.62 160.814 9.004 159.19 8.5C157.622 7.94 155.858 7.66 153.898 7.66C149.922 7.66 147.934 8.864 147.934 11.272C147.934 12.616 148.466 13.652 149.53 14.38C150.594 15.052 152.33 15.808 154.738 16.648C154.962 16.704 155.83 17.012 157.342 17.572C160.926 18.972 163.586 20.568 165.322 22.36C167.058 24.152 167.926 26.448 167.926 29.248C167.926 33.056 166.47 35.94 163.558 37.9C160.702 39.86 157.062 40.84 152.638 40.84ZM188.855 40.84C184.263 40.84 180.427 39.944 177.347 38.152C174.267 36.304 171.999 33.868 170.543 30.844C169.087 27.764 168.359 24.404 168.359 20.764C168.359 16.676 169.199 13.092 170.879 10.012C172.615 6.932 174.995 4.58 178.019 2.956C181.043 1.276 184.459 0.435999 188.267 0.435999C194.203 0.435999 198.599 2.088 201.455 5.392C204.367 8.64 205.823 13.232 205.823 19.168C205.823 20.68 205.739 22.248 205.571 23.872H177.851C178.467 27.288 179.671 29.752 181.463 31.264C183.311 32.776 185.859 33.532 189.107 33.532C191.795 33.532 194.007 33.308 195.743 32.86C197.479 32.412 199.075 31.796 200.531 31.012L203.303 37.48C201.903 38.376 199.999 39.16 197.591 39.832C195.183 40.504 192.271 40.84 188.855 40.84ZM197.003 17.572C197.059 14.1 196.303 11.664 194.735 10.264C193.167 8.808 190.927 8.08 188.015 8.08C182.135 8.08 178.747 11.244 177.851 17.572H197.003ZM226.59 40.84C222.614 40.84 219.086 39.944 216.006 38.152C212.926 36.36 210.546 33.924 208.866 30.844C207.186 27.764 206.346 24.348 206.346 20.596C206.346 16.9 207.158 13.512 208.782 10.432C210.462 7.352 212.842 4.916 215.922 3.124C219.002 1.332 222.558 0.435999 226.59 0.435999C230.622 0.435999 234.15 1.332 237.174 3.124C240.254 4.916 242.606 7.352 244.23 10.432C245.91 13.512 246.75 16.9 246.75 20.596C246.75 24.348 245.91 27.764 244.23 30.844C242.55 33.924 240.17 36.36 237.09 38.152C234.066 39.944 230.566 40.84 226.59 40.84ZM226.842 33.448C230.09 33.448 232.638 32.244 234.486 29.836C236.39 27.428 237.342 24.404 237.342 20.764C237.342 17.124 236.334 14.072 234.318 11.608C232.302 9.088 229.642 7.828 226.338 7.828C223.146 7.828 220.57 9.06 218.61 11.524C216.706 13.988 215.754 17.068 215.754 20.764C215.754 24.348 216.79 27.372 218.862 29.836C220.934 32.244 223.594 33.448 226.842 33.448ZM249.718 1.444H258.622L258.706 8.5C259.77 6.148 261.45 4.216 263.746 2.704C266.042 1.192 268.73 0.435999 271.81 0.435999C275.786 0.435999 278.838 1.276 280.966 2.956C283.094 4.58 284.522 6.876 285.25 9.844C285.978 12.812 286.342 16.676 286.342 21.436V40H277.27V21.688C277.27 16.816 276.794 13.316 275.842 11.188C274.89 9.004 272.93 7.912 269.962 7.912C268.282 7.912 266.574 8.444 264.838 9.508C263.102 10.516 261.646 12 260.47 13.96C259.35 15.92 258.79 18.216 258.79 20.848V40H249.718V1.444Z" fill="#666CFF"/>
</svg>
